<svg xmlns="http://www.w3.org/2000/svg" viewBox="0 0 382.55 403.78"><defs><style>.cls-1{fill:#ff9b35;}.cls-2{fill:#ff8b35;}.cls-3,.cls-4{fill:none;}.cls-3,.cls-5{stroke:#000;}.cls-3,.cls-4,.cls-5{stroke-linecap:round;stroke-miterlimit:10;stroke-width:5px;}.cls-4{stroke:#fff;}</style></defs><title>Asset 2</title><g id="Layer_2" data-name="Layer 2"><g id="Layer_1-2" data-name="Layer 1"><circle class="cls-1" cx="142.74" cy="142.74" r="140.24"/><path class="cls-1" d="M2.5,159.08V383a18.3,18.3,0,0,0,18.3,18.3H57.59a21.75,21.75,0,0,0,20-13.29l77.52-183.23A23,23,0,0,0,139,173.3l-17.58-3.94-43.78-9.8L18.44,146.31A13.09,13.09,0,0,0,2.5,159.08Z"/><path class="cls-2" d="M2.5,244.87v48.87l15.43-6.58a16.09,16.09,0,0,0,9.78-14.8v-7.72A16.33,16.33,0,0,0,16.12,249Z"/></g><g id="Layer_2-2" data-name="Layer 2"><path class="cls-3" d="M246.47,237.14A139.89,139.89,0,0,1,142.74,283a141.56,141.56,0,0,1-20.08-1.43"/><path class="cls-3" d="M273.94,93.09a140.63,140.63,0,0,1-5.86,112.65"/><path class="cls-3" d="M2.5,142.74A140.24,140.24,0,0,1,249,51.24"/><line class="cls-3" x1="99.41" y1="164.44" x2="87.16" y2="161.7"/><path class="cls-3" d="M107.24,318l47.91-113.25A23,23,0,0,0,139,173.3l-31.49-7.05"/><path class="cls-3" d="M2.5,293.74V383a18.3,18.3,0,0,0,18.3,18.3H57.59a21.75,21.75,0,0,0,20-13.29L81,380.07"/><polyline class="cls-3" points="77.61 159.56 2.5 142.74 2.5 244.87"/><path class="cls-3" d="M2.5,293.74l15.43-6.58a16.09,16.09,0,0,0,9.78-14.8v-7.72A16.33,16.33,0,0,0,16.12,249L2.5,244.87"/><line class="cls-3" x1="20.66" y1="102.86" x2="7.89" y2="104.11"/><path class="cls-3" d="M87.16,14,82.35,61s-20.94,5.62-36.26,39.32l-11.83,1.16"/><path class="cls-4" d="M60.42,160.1a84.2,84.2,0,1,0-1.79-17.36q0,3.39.26,6.69"/><path class="cls-3" d="M27.71,237.21s8.17,3.58,10.21,16.34"/><path class="cls-3" d="M142.74,88.62a54.12,54.12,0,0,1,54.13,54.12"/><line class="cls-5" x1="320.75" y1="25.74" x2="339.09" y2="6.49"/><line class="cls-5" x1="297.33" y1="50.32" x2="315.23" y2="31.53"/><line class="cls-5" x1="343.79" y1="132.44" x2="380.05" y2="132.44"/><line class="cls-5" x1="328.99" y1="132.44" x2="336.48" y2="132.44"/><line class="cls-5" x1="351.8" y1="244.69" x2="360.65" y2="251"/><line class="cls-5" x1="309.58" y1="214.56" x2="343.79" y2="238.98"/><path d="M88.33,383.16v-54A5.21,5.21,0,0,1,93.54,324H103a18.67,18.67,0,0,1,0,37.34H98.71v21.84a5.14,5.14,0,0,1-5.17,5.16,5.08,5.08,0,0,1-3.69-1.5A5,5,0,0,1,88.33,383.16Zm10.38-32.22H103a8.29,8.29,0,0,0,0-16.58H98.71Z"/><path d="M129.82,381.76l14.79-54a5.2,5.2,0,0,1,1.88-2.77,5.11,5.11,0,0,1,3.15-1h0a5.24,5.24,0,0,1,3.15,1.12,5.06,5.06,0,0,1,1.84,2.79l13.53,54a5.22,5.22,0,0,1,.18,1.35,5.3,5.3,0,0,1-.77,2.56,5,5,0,0,1-3.19,2.38,5.15,5.15,0,0,1-1.34.18,5.17,5.17,0,0,1-4.94-3.91L155.27,373H143L139.8,384.5a5,5,0,0,1-1.84,2.77,5.11,5.11,0,0,1-3.15,1.05,4.74,4.74,0,0,1-1.39-.18,5.11,5.11,0,0,1-3.1-2.42,4.78,4.78,0,0,1-.5-4Zm16-19.18h6.85l-3.25-13Z"/><path d="M182.14,383.11V329.19a5.22,5.22,0,0,1,5.21-5.21h9.44a18.66,18.66,0,0,1,18.64,18.69,18.18,18.18,0,0,1-2.22,8.81,18.73,18.73,0,0,1-6,6.65L217.5,381a5.23,5.23,0,0,1,.45,2.11,5.23,5.23,0,0,1-3.1,4.76,4.84,4.84,0,0,1-2.11.45,5.14,5.14,0,0,1-2.81-.81,4.88,4.88,0,0,1-1.91-2.24l-10.74-23.95h-4.76v21.79A5,5,0,0,1,191,386.8a5,5,0,0,1-3.66,1.52,5.21,5.21,0,0,1-5.21-5.21Zm10.38-32.17h4.27a8.29,8.29,0,0,0,0-16.58h-4.27Z"/><path d="M228,383.16v-54a5.2,5.2,0,0,1,8.88-3.68,5,5,0,0,1,1.5,3.68V349.9L254,326.4a4.87,4.87,0,0,1,3.28-2.2,6.47,6.47,0,0,1,1.08-.09,5.09,5.09,0,0,1,2.83.86,5,5,0,0,1,2.24,3.28,3.61,3.61,0,0,1,.09,1.12,5,5,0,0,1-.85,2.79L249.11,352.6l14,28.13a5.23,5.23,0,0,1,.54,2.29,5.37,5.37,0,0,1-.27,1.71,4.73,4.73,0,0,1-2.6,3,5.46,5.46,0,0,1-2.29.54,5.11,5.11,0,0,1-2.7-.76,5,5,0,0,1-1.93-2.11l-11.37-22.78-4.05,6.11v14.47a5.12,5.12,0,0,1-5.16,5.16,5.08,5.08,0,0,1-3.69-1.5A5,5,0,0,1,228,383.16Z"/><path d="M277.43,371.65V329.19a5.2,5.2,0,0,1,8.88-3.68,5,5,0,0,1,1.5,3.68v42.46a6,6,0,0,0,1.87,4.45,6.3,6.3,0,0,0,10.76-4.45V329.19a5,5,0,0,1,1.51-3.68,4.93,4.93,0,0,1,3.66-1.53,5.22,5.22,0,0,1,5.21,5.21v42.46a16.7,16.7,0,0,1-33.39,0Z"/><path d="M321.17,327.75a5,5,0,0,1,2.47-3.1,5.12,5.12,0,0,1,2.52-.67,5.92,5.92,0,0,1,1.44.18,4.92,4.92,0,0,1,3.1,2.47l10.51,18.87,10.56-18.87a5,5,0,0,1,3.1-2.47,5.92,5.92,0,0,1,1.44-.18,5.12,5.12,0,0,1,2.52.67,4.92,4.92,0,0,1,2.47,3.1,5.27,5.27,0,0,1,.22,1.49,5,5,0,0,1-.67,2.47L346.43,357.5v25.61a5.21,5.21,0,0,1-5.22,5.21,5,5,0,0,1-3.66-1.52,5.08,5.08,0,0,1-1.5-3.69V357.5l-14.43-25.79a5,5,0,0,1-.67-2.47A5.27,5.27,0,0,1,321.17,327.75Z"/></g></g></svg>